# xmcd CD database file
# Copyright (C) 1993-1998 Ti Kan
# 
# Track frame offsets:
#     150
#     13763
#     33155
#     44410
#     62700
#     75943
#     85873
#     95833
#     108678
#     120308
#     131568
#     143825
#     160260
#     169850
#     185218
#     197860
#     210480
#     221148
#     231158
#     242963
# 
# Disc length: 3447 seconds
# 
# Revision: 1
# Processed by: cddbd v1.4b41PL1 Copyright (c) Steve Scherf et al.
# Submitted via: DiscPlay 4.0.4
# 
DISCID=200d7514
DTITLE=Mariachi Vargas - Mariachi Vargas De Tecalitlan - Serie 20 EXITOS
DYEAR=1900
DGENRE=
TTITLE0=Guadalajara
TTITLE1=Jarabe Michoacano
TTITLE2=El Zopilote Mojado
TTITLE3=Zacatecas
TTITLE4=Que Bonita Es Mi Tierra
TTITLE5=Las Alazanas
TTITLE6=Cielito Lindo
TTITLE7=Las Coronelas
TTITLE8=La Bikina
TTITLE9=El Son Del Gavilancillo
TTITLE10=La Negra
TTITLE11=Fiesta En Jalisco
TTITLE12=El Carretero Se Va
TTITLE13=Las Ma anitas
TTITLE14=La Culebra
TTITLE15=La Feria De Las Flores
TTITLE16=Jesusita En Chihuahua
TTITLE17=La Bamba
TTITLE18=El Jarbabe Tapatio
TTITLE19=Las Golondrinas
EXTD=
EXTT0=
EXTT1=
EXTT2=
EXTT3=
EXTT4=
EXTT5=
EXTT6=
EXTT7=
EXTT8=
EXTT9=
EXTT10=
EXTT11=
EXTT12=
EXTT13=
EXTT14=
EXTT15=
EXTT16=
EXTT17=
EXTT18=
EXTT19=
PLAYORDER=
